<mxfile host="Electron" agent="Mozilla/5.0 (X11; Linux x86_64) AppleWebKit/537.36 (KHTML, like Gecko) draw.io/27.0.9 Chrome/134.0.6998.205 Electron/35.4.0 Safari/537.36" version="27.0.9">
  <diagram name="Page-1" id="pWvQHraaas_BnM1Vkm5G">
    <mxGraphModel dx="815" dy="500" grid="1" gridSize="10" guides="1" tooltips="1" connect="1" arrows="1" fold="1" page="1" pageScale="1" pageWidth="850" pageHeight="1100" math="0" shadow="0">
      <root>
        <mxCell id="0" />
        <mxCell id="1" parent="0" />
        <mxCell id="VOUNtthFStArULWsIAmo-20" value="" style="ellipse;whiteSpace=wrap;html=1;fillColor=none;strokeColor=#FF0000;" parent="1" vertex="1">
          <mxGeometry x="370" y="597" width="40" height="40" as="geometry" />
        </mxCell>
        <mxCell id="yCcGKr1o0Z3Wg7-sfAmL-4" style="edgeStyle=orthogonalEdgeStyle;rounded=0;orthogonalLoop=1;jettySize=auto;html=1;entryX=0.5;entryY=0;entryDx=0;entryDy=0;" edge="1" parent="1" source="VOUNtthFStArULWsIAmo-1" target="yCcGKr1o0Z3Wg7-sfAmL-1">
          <mxGeometry relative="1" as="geometry" />
        </mxCell>
        <mxCell id="VOUNtthFStArULWsIAmo-1" value="" style="ellipse;whiteSpace=wrap;html=1;fillStyle=solid;gradientColor=none;fillColor=#000000;strokeColor=#FF0000;strokeWidth=1;" parent="1" vertex="1">
          <mxGeometry x="385" y="125" width="30" height="30" as="geometry" />
        </mxCell>
        <mxCell id="VOUNtthFStArULWsIAmo-19" value="" style="ellipse;whiteSpace=wrap;html=1;fillStyle=solid;gradientColor=none;fillColor=#000000;strokeColor=#FF0000;strokeWidth=1;" parent="1" vertex="1">
          <mxGeometry x="375" y="602" width="30" height="30" as="geometry" />
        </mxCell>
        <mxCell id="yCcGKr1o0Z3Wg7-sfAmL-12" style="edgeStyle=orthogonalEdgeStyle;rounded=0;orthogonalLoop=1;jettySize=auto;html=1;entryX=0.5;entryY=0;entryDx=0;entryDy=0;" edge="1" parent="1" source="yCcGKr1o0Z3Wg7-sfAmL-1" target="yCcGKr1o0Z3Wg7-sfAmL-11">
          <mxGeometry relative="1" as="geometry" />
        </mxCell>
        <mxCell id="yCcGKr1o0Z3Wg7-sfAmL-15" value="&lt;div&gt;&lt;span style=&quot;background-color: light-dark(#ffffff, var(--ge-dark-color, #121212)); color: light-dark(rgb(0, 0, 0), rgb(255, 255, 255));&quot;&gt;&lt;font style=&quot;font-size: 8px;&quot;&gt;사용자 디스플레이를 조작하거나&amp;nbsp;&lt;/font&gt;&lt;/span&gt;&lt;/div&gt;&lt;div&gt;&lt;span style=&quot;background-color: light-dark(#ffffff, var(--ge-dark-color, #121212)); color: light-dark(rgb(0, 0, 0), rgb(255, 255, 255));&quot;&gt;&lt;font style=&quot;font-size: 8px;&quot;&gt;옵션을 선택중&lt;/font&gt;&lt;/span&gt;&lt;/div&gt;" style="edgeLabel;html=1;align=center;verticalAlign=middle;resizable=0;points=[];" vertex="1" connectable="0" parent="yCcGKr1o0Z3Wg7-sfAmL-12">
          <mxGeometry x="-0.075" y="1" relative="1" as="geometry">
            <mxPoint x="59" as="offset" />
          </mxGeometry>
        </mxCell>
        <mxCell id="yCcGKr1o0Z3Wg7-sfAmL-14" style="edgeStyle=orthogonalEdgeStyle;rounded=0;orthogonalLoop=1;jettySize=auto;html=1;entryX=0;entryY=0.5;entryDx=0;entryDy=0;" edge="1" parent="1" source="yCcGKr1o0Z3Wg7-sfAmL-1" target="yCcGKr1o0Z3Wg7-sfAmL-2">
          <mxGeometry relative="1" as="geometry">
            <Array as="points">
              <mxPoint x="240" y="215" />
              <mxPoint x="240" y="375" />
            </Array>
          </mxGeometry>
        </mxCell>
        <mxCell id="yCcGKr1o0Z3Wg7-sfAmL-1" value="대기 장소에서 대기" style="rounded=1;whiteSpace=wrap;html=1;" vertex="1" parent="1">
          <mxGeometry x="320" y="195" width="160" height="40" as="geometry" />
        </mxCell>
        <mxCell id="yCcGKr1o0Z3Wg7-sfAmL-6" style="edgeStyle=orthogonalEdgeStyle;rounded=0;orthogonalLoop=1;jettySize=auto;html=1;entryX=0.5;entryY=0;entryDx=0;entryDy=0;" edge="1" parent="1" source="yCcGKr1o0Z3Wg7-sfAmL-2" target="yCcGKr1o0Z3Wg7-sfAmL-3">
          <mxGeometry relative="1" as="geometry" />
        </mxCell>
        <mxCell id="yCcGKr1o0Z3Wg7-sfAmL-2" value="작업 할당됨" style="rounded=1;whiteSpace=wrap;html=1;" vertex="1" parent="1">
          <mxGeometry x="320" y="355" width="160" height="40" as="geometry" />
        </mxCell>
        <mxCell id="yCcGKr1o0Z3Wg7-sfAmL-9" value="" style="edgeStyle=orthogonalEdgeStyle;rounded=0;orthogonalLoop=1;jettySize=auto;html=1;" edge="1" parent="1" source="yCcGKr1o0Z3Wg7-sfAmL-3" target="yCcGKr1o0Z3Wg7-sfAmL-8">
          <mxGeometry relative="1" as="geometry" />
        </mxCell>
        <mxCell id="yCcGKr1o0Z3Wg7-sfAmL-3" value="작업 수행을 위해 이동 중" style="rounded=1;whiteSpace=wrap;html=1;" vertex="1" parent="1">
          <mxGeometry x="320" y="435" width="160" height="40" as="geometry" />
        </mxCell>
        <mxCell id="yCcGKr1o0Z3Wg7-sfAmL-8" value="" style="whiteSpace=wrap;html=1;rounded=1;" vertex="1" parent="1">
          <mxGeometry x="320" y="515" width="160" height="40" as="geometry" />
        </mxCell>
        <mxCell id="yCcGKr1o0Z3Wg7-sfAmL-13" style="edgeStyle=orthogonalEdgeStyle;rounded=0;orthogonalLoop=1;jettySize=auto;html=1;entryX=0.5;entryY=0;entryDx=0;entryDy=0;" edge="1" parent="1" source="yCcGKr1o0Z3Wg7-sfAmL-11" target="yCcGKr1o0Z3Wg7-sfAmL-2">
          <mxGeometry relative="1" as="geometry" />
        </mxCell>
        <mxCell id="yCcGKr1o0Z3Wg7-sfAmL-16" style="edgeStyle=orthogonalEdgeStyle;rounded=0;orthogonalLoop=1;jettySize=auto;html=1;entryX=1;entryY=0.5;entryDx=0;entryDy=0;" edge="1" parent="1" source="yCcGKr1o0Z3Wg7-sfAmL-11" target="yCcGKr1o0Z3Wg7-sfAmL-1">
          <mxGeometry relative="1" as="geometry">
            <Array as="points">
              <mxPoint x="560" y="295" />
              <mxPoint x="560" y="215" />
            </Array>
          </mxGeometry>
        </mxCell>
        <mxCell id="yCcGKr1o0Z3Wg7-sfAmL-11" value="사용자 조작 중" style="rounded=1;whiteSpace=wrap;html=1;" vertex="1" parent="1">
          <mxGeometry x="320" y="275" width="160" height="40" as="geometry" />
        </mxCell>
        <mxCell id="yCcGKr1o0Z3Wg7-sfAmL-17" value="&lt;font style=&quot;font-size: 8px;&quot;&gt;사용자가 취소하거나&amp;nbsp;&lt;/font&gt;&lt;div&gt;&lt;font style=&quot;font-size: 8px;&quot;&gt;타임아웃 등으로 되돌아감&lt;/font&gt;&lt;/div&gt;" style="text;html=1;align=center;verticalAlign=middle;resizable=0;points=[];autosize=1;strokeColor=none;fillColor=none;" vertex="1" parent="1">
          <mxGeometry x="557" y="233" width="110" height="40" as="geometry" />
        </mxCell>
        <mxCell id="yCcGKr1o0Z3Wg7-sfAmL-18" value="원격 작업 요청" style="text;html=1;align=center;verticalAlign=middle;resizable=0;points=[];autosize=1;strokeColor=none;fillColor=none;" vertex="1" parent="1">
          <mxGeometry x="145" y="280" width="100" height="30" as="geometry" />
        </mxCell>
        <mxCell id="yCcGKr1o0Z3Wg7-sfAmL-19" value="&lt;font style=&quot;font-size: 8px;&quot;&gt;사용자가 조작을 마치고&lt;/font&gt;&lt;div&gt;&lt;font style=&quot;font-size: 8px;&quot;&gt;실제로 작업 요청 확정&lt;/font&gt;&lt;/div&gt;" style="text;html=1;align=center;verticalAlign=middle;resizable=0;points=[];autosize=1;strokeColor=none;fillColor=none;" vertex="1" parent="1">
          <mxGeometry x="396" y="312" width="100" height="40" as="geometry" />
        </mxCell>
      </root>
    </mxGraphModel>
  </diagram>
</mxfile>
